<?xml version="1.0" standalone="no"?>
<svg
  width="600"
  height="600"
  viewBox="0 0 600 600"
  xmlns="http://www.w3.org/2000/svg"
>
  <g transform="translate(300,300)">
    <path d="M138.8,-199.8C164,-172.8,157.6,-111,170.9,-58.3C184.2,-5.7,217.2,37.8,207.3,67.2C197.5,96.5,144.9,111.8,103.2,138.9C61.5,166,30.8,205,-8.1,216.2C-47,227.4,-94,210.8,-134.3,183.2C-174.6,155.6,-208.1,117,-210.1,76.4C-212.1,35.7,-182.6,-7,-168.9,-56.6C-155.2,-106.2,-157.2,-162.7,-131.7,-189.6C-106.2,-216.5,-53.1,-213.7,1.9,-216.3C56.8,-218.9,113.6,-226.7,138.8,-199.8Z" fill="#4a3c3c" />
  </g>
</svg>
  